<?xml version="1.0" encoding="utf-8"?>
<svg xmlns="http://www.w3.org/2000/svg" xmlns:ev="http://www.w3.org/2001/xml-events" xmlns:xlink="http://www.w3.org/1999/xlink" baseProfile="full" height="1024" version="1.1" viewBox="0 0 1024 1024" width="1024">
  <defs/>
  <path d="M 600.00,403.00 L 551.00,378.00 L 490.00,439.00 L 543.00,467.00 L 576.00,504.00 L 588.00,540.00 L 588.00,570.00 L 576.00,606.00 L 427.00,761.00 L 385.00,784.00 L 343.00,789.00 L 295.00,772.00 L 259.00,737.00 L 243.00,697.00 L 243.00,656.00 L 255.00,625.00 L 336.00,536.00 L 328.00,486.00 L 333.00,419.00 L 209.00,543.00 L 168.00,608.00 L 158.00,649.00 L 156.00,691.00 L 176.00,764.00 L 197.00,799.00 L 223.00,827.00 L 272.00,859.00 L 317.00,873.00 L 367.00,876.00 L 424.00,863.00 L 484.00,828.00 L 626.00,684.00 L 651.00,650.00 L 667.00,614.00 L 674.00,545.00 L 667.00,505.00 L 651.00,464.00 L 631.00,433.00 Z M 797.00,196.00 L 747.00,170.00 L 706.00,160.00 L 651.00,160.00 L 604.00,172.00 L 543.00,207.00 L 400.00,350.00 L 364.00,411.00 L 353.00,481.00 L 369.00,551.00 L 390.00,589.00 L 413.00,616.00 L 441.00,637.00 L 480.00,654.00 L 538.00,594.00 L 535.00,588.00 L 488.00,567.00 L 454.00,531.00 L 441.00,493.00 L 445.00,445.00 L 465.00,412.00 L 590.00,286.00 L 619.00,262.00 L 649.00,249.00 L 698.00,247.00 L 746.00,268.00 L 778.00,302.00 L 793.00,347.00 L 792.00,382.00 L 776.00,420.00 L 696.00,503.00 L 702.00,569.00 L 694.00,624.00 L 827.00,496.00 L 869.00,426.00 L 879.00,389.00 L 880.00,340.00 L 873.00,305.00 L 855.00,261.00 L 831.00,227.00 Z" fill="#F81C1D" fill-rule="evenodd"/>
</svg>
